<svg width="20" height="20" viewBox="0 0 20 20" fill="none" xmlns="http://www.w3.org/2000/svg">
<path d="M6.5654 10.0584C6.5654 9.71675 6.84873 9.43341 7.1904 9.43341H11.7571V2.38341C11.7487 1.98341 11.4321 1.66675 11.0321 1.66675C6.12373 1.66675 2.69873 5.09175 2.69873 10.0001C2.69873 14.9084 6.12373 18.3334 11.0321 18.3334C11.4237 18.3334 11.7487 18.0167 11.7487 17.6167V10.6751H7.1904C6.8404 10.6834 6.5654 10.4001 6.5654 10.0584Z" fill="#929EAE"/>
<path d="M17.1181 9.61683L14.7515 7.2418C14.5098 7.00013 14.1098 7.00013 13.8681 7.2418C13.6265 7.48346 13.6265 7.88346 13.8681 8.12513L15.1681 9.42516H11.7515V10.6752H15.1598L13.8598 11.9752C13.6181 12.2168 13.6181 12.6168 13.8598 12.8585C13.9848 12.9835 14.1431 13.0418 14.3015 13.0418C14.4598 13.0418 14.6181 12.9835 14.7431 12.8585L17.1098 10.4835C17.3598 10.2502 17.3598 9.8585 17.1181 9.61683Z" fill="#929EAE"/>
</svg>
