<svg width="20" height="20" viewBox="0 0 20 20" fill="none" xmlns="http://www.w3.org/2000/svg">
<g clip-path="url(#clip0_54_1482)">
<path d="M15 14.1667H5V12.5001H15V14.1667ZM15 10.8334H5V9.16675H15V10.8334ZM15 7.50008H5V5.83342H15V7.50008ZM2.5 18.3334L3.75 17.0834L5 18.3334L6.25 17.0834L7.5 18.3334L8.75 17.0834L10 18.3334L11.25 17.0834L12.5 18.3334L13.75 17.0834L15 18.3334L16.25 17.0834L17.5 18.3334V1.66675L16.25 2.91675L15 1.66675L13.75 2.91675L12.5 1.66675L11.25 2.91675L10 1.66675L8.75 2.91675L7.5 1.66675L6.25 2.91675L5 1.66675L3.75 2.91675L2.5 1.66675V18.3334Z" fill="#1B212D"/>
</g>
<defs>
<clipPath id="clip0_54_1482">
<rect width="20" height="20" fill="white"/>
</clipPath>
</defs>
</svg>
