<svg width="18" height="14" viewBox="0 0 18 14" fill="none" xmlns="http://www.w3.org/2000/svg">
<path d="M8.9999 10.7501C7.02464 10.7501 5.42568 9.22116 5.27855 7.28366L2.54678 5.17247C2.18766 5.62299 1.85719 6.09929 1.59053 6.62012C1.53096 6.73796 1.49992 6.86816 1.49992 7.0002C1.49992 7.13224 1.53096 7.26244 1.59053 7.38028C3.00277 10.1357 5.7986 12.0001 8.9999 12.0001C9.70068 12.0001 10.3767 11.8959 11.0283 11.7277L9.67699 10.6821C9.45382 10.7252 9.22719 10.748 8.9999 10.7501ZM17.1723 12.2631L14.2934 10.0381C15.1679 9.30109 15.8872 8.39754 16.4093 7.38002C16.4689 7.26218 16.4999 7.13198 16.4999 6.99994C16.4999 6.8679 16.4689 6.7377 16.4093 6.61986C14.997 3.86439 12.2012 2.00007 8.9999 2.00007C7.65915 2.0017 6.34017 2.33923 5.16344 2.98184L1.85042 0.421165C1.80722 0.387547 1.75782 0.362772 1.70504 0.348255C1.65226 0.333738 1.59713 0.329763 1.54281 0.336559C1.4885 0.343355 1.43605 0.360787 1.38847 0.38786C1.34089 0.414934 1.29912 0.451116 1.26553 0.494342L0.75433 1.15241C0.686517 1.23965 0.656131 1.35025 0.669854 1.45989C0.683577 1.56952 0.740285 1.66922 0.827507 1.73705L16.1494 13.579C16.1926 13.6126 16.242 13.6374 16.2948 13.6519C16.3476 13.6664 16.4027 13.6704 16.457 13.6636C16.5113 13.6568 16.5638 13.6394 16.6113 13.6123C16.6589 13.5852 16.7007 13.549 16.7343 13.5058L17.2457 12.8477C17.3135 12.7605 17.3439 12.6498 17.3301 12.5402C17.3163 12.4306 17.2596 12.3309 17.1723 12.2631ZM12.3879 8.56518L11.3645 7.77403C11.4507 7.52493 11.4964 7.26363 11.4999 7.00007C11.505 6.6142 11.4195 6.23252 11.2503 5.88568C11.0811 5.53884 10.8329 5.23652 10.5257 5.00299C10.2185 4.76947 9.86079 4.61125 9.48133 4.54104C9.10186 4.47084 8.71122 4.49061 8.34079 4.59877C8.49782 4.81156 8.58277 5.06895 8.58324 5.3334C8.57935 5.42141 8.5659 5.50873 8.54313 5.59382L6.6262 4.11231C7.29209 3.55585 8.13212 3.25071 8.9999 3.25007C9.49244 3.2498 9.9802 3.34661 10.4353 3.53496C10.8904 3.72332 11.3039 3.99954 11.6522 4.34781C12.0004 4.69608 12.2767 5.10959 12.465 5.56468C12.6534 6.01978 12.7502 6.50754 12.7499 7.00007C12.7499 7.56335 12.6121 8.08835 12.3879 8.56543V8.56518Z" fill="#9FA2B4"/>
</svg>
